# xmcd
#
# Track frame offsets:
#	150
#	27809
#	64338
#	105936
#	155806
#	185509
#	221115
#	243351
#	298521
#
# Disc length: 4507 seconds
#
# Revision: 1
# Processed by: cddbd v1.5.2PL0 Copyright (c) Steve Scherf et al.
# Submitted via: audiograbber 1.83.01
#
DISCID=80119909
DTITLE=Eddie Turner - naked ... in your face
DYEAR=2015
DGENRE=Blues
TTITLE0=Jodie
TTITLE1=Mistreated
TTITLE2=So many Roads
TTITLE3=Rise
TTITLE4=Buried Alive In The Blues
TTITLE5=Blues Fall Down Like Rain
TTITLE6=Don't Let Me Be Misunderstood
TTITLE7=Dangerous
TTITLE8=Secret
EXTD=
EXTT0=
EXTT1=
EXTT2=
EXTT3=
EXTT4=
EXTT5=
EXTT6=
EXTT7=
EXTT8=
PLAYORDER=
